# xmcd
#
# Track frame offsets:
#	150
#	13995
#	27296
#	42143
#	56549
#	71739
#	83977
#	98166
#	110964
#	126248
#	139431
#	151622
#	166273
#	181502
#	196565
#	209523
#	224800
#	237824
#	250448
#	263591
#
# Disc length: 3710 seconds
#
# Revision: 0
# Processed by: cddbd v1.5.2PL0 Copyright (c) Steve Scherf et al.
# Submitted via: EasyCDDAExtractor 16.1.0.1
#
DISCID=1f0e7c14
DTITLE=Various Artist - Great Blues Guitarists: String Dazzlers
DYEAR=1991
DGENRE=Blues
TTITLE0=Lonnie Johnson and Eddie Lang - Hot Fingers
TTITLE1=Lonnie Johnson and Eddie Lang - A Handful Of Riffs
TTITLE2=Texas Alexander - Work Ox Blues
TTITLE3=Sylvester Weaver - I'm Busy And You Can't Come In
TTITLE4=Blind Willie McTell - Georgia Rag
TTITLE5=Blind Willie McTell - Warm It Up To Me
TTITLE6=Sylvester Weaver - Untitled
TTITLE7=Sylvester Weaver and Walter Beasley - Untitled
TTITLE8=Blind Willie Johnson - When The War Was On
TTITLE9=Blind Willie Johnson - It's Nobody's Fault But Mine
TTITLE10=Big Bill Broonzy - How You Want It Done?
TTITLE11=Big Bill Broonzy - Getting Older Every Day
TTITLE12=Casey Bill Weldon - Guitar Swing
TTITLE13=Lonnie Johnson and Eddie Lang - Bull Frog Moan
TTITLE14=Blind Lemon Jefferson - Black Snake Moan
TTITLE15=Joshua White - Little Brother Blues
TTITLE16=Joshua White - Prodigal Son
TTITLE17=Tampa Red - Denver Blues
TTITLE18=Lonnie Johnson - Away Down In The Alley Blues
TTITLE19=Lonnie Johnson - I Love You, Mary Lou
EXTD=
EXTT0=
EXTT1=
EXTT2=
EXTT3=
EXTT4=
EXTT5=
EXTT6=
EXTT7=
EXTT8=
EXTT9=
EXTT10=
EXTT11=
EXTT12=
EXTT13=
EXTT14=
EXTT15=
EXTT16=
EXTT17=
EXTT18=
EXTT19=
PLAYORDER=
